The Good The Bad And The Ugly 1966 BluRay 1080p DTS x264-LoNeWoLf

Encoded by Tequila-Bob a.k.a. bobnjeff a.k.a.LoNeWoLf

Source - NTSC BluRay Disc.

Movie has been tested and is DXVA Compliant

 
http://www.imdb.com/title/tt0060196/

The Good, the Bad and the Ugly (1966) 

Il buono, il brutto, il cattivo. (original title) 
161 min  -  Adventure | Western   -  29 December 1967 (USA) 
9.0/10 X  Users: 9.0/10 (174,590 votes) 548 reviews | Critics: 143 reviews Metascore: 90/100 (based on 7 reviews from Metacritic.com) 
A bounty hunting scam joins two men in an uneasy alliance against a third in a race to find a fortune in gold buried in a remote cemetery. 


Director: Sergio Leone
Writers: Luciano Vincenzoni (story), Sergio Leone (story), and 5 more credits » 
Stars:Clint Eastwood, Eli Wallach , Lee Van Cleef

  Rated 'R' for Strong Western Violence and Brief Language.

  Plot Keywords:Gold | Cemetery | Scam | Outlaw | Honor

  Release Date:29 December 1967 (USA)

Storyline
Blondie (The Good) is a professional gunslinger who is out trying to earn a few dollars. Angel Eyes (The Bad) is a hit man who always commits to a task and sees it through, as long as he is paid to do so. And Tuco (The Ugly) is a wanted outlaw trying to take care of his own hide. Tuco and Blondie share a partnership together making money off Tuco's bounty, but when Blondie unties the partnership, Tuco tries to hunt down Blondie. When Blondie and Tuco comes across a horse carriage loaded with dead bodies, they soon learn from the only survivor (Bill Carson) that he and a few other men have buried a stash of gold in a cemetery. Unfortunately Carson dies and Tuco only finds out the name of the cemetery, while Blondie finds out the name on the grave. Now the two must keep each other alive in order to find the gold. Angel Eyes (who had been looking for Bill Carson) discovers that Tuco and Blondie meet with Carson and knows they know the location of the gold... 


Cast
Cast overview, first billed only: 
  Eli Wallach  ...  Tuco  
  Clint Eastwood  ...  Blondie  
  Lee Van Cleef  ...  Sentenza / Angel Eyes  
  Aldo Giuffrè  ...  Alcoholic Union Captain (as Aldo Giuffre')  
  Luigi Pistilli  ...  Father Pablo Ramirez  
  Rada Rassimov  ...  Maria  
  Enzo Petito  ...  Storekeeper  
  Claudio Scarchilli  ...  Mexican Peon  
  John Bartha  ...  Sheriff (as John Bartho)  
  Livio Lorenzon  ...  Baker  
  Antonio Casale  ...  Jackson / Bill Carson  
  Sandro Scarchilli  ...  Mexican Peon  
  Benito Stefanelli  ...  Member of Angel Eyes' Gang  
  Angelo Novi  ...  Monk  
  Antonio Casas  ...  Stevens  



[img]http://torrent-stats.info/698f/79375717.png[/img]

See all 21 full size 1920x816 PNG files at the link below
 
http://s1015.photobucket.com/albums/af279/tequila-bob/The%20Good%20The%20Bad%20And%20The%20Ugly%201966/



Format : Matroska 
File size : 15.1 GiB 
Duration : 2h 58mn 
Overall bit rate : 12.1 Mbps 
Encoded date : UTC 2011-01-25 23:38:16 
Writing application : mkvmerge v4.4.0 ('Die Wiederkehr') built on Oct 31 2010 21:52:48 
Writing library : libebml v1.0.0 + libmatroska v1.0.0 

Video 
ID : 1 
Format : AVC 
Format/Info : Advanced Video Codec 
Format profile : High@L4.1 
Format settings, CABAC : Yes 
Format settings, ReFrames : 4 frames 
Muxing mode : Container profile=Unknown@4.1 
Codec ID : V_MPEG4/ISO/AVC 
Duration : 2h 58mn 
Bit rate : 10.4 Mbps 
Width : 1 920 pixels 
Height : 816 pixels 
Display aspect ratio : 2.35:1 
Frame rate : 23.976 fps 
Color space : YUV 
Chroma subsampling : 4:2:0 
Bit depth : 8 bits 
Scan type : Progressive 
Bits/(Pixel*Frame) : 0.278 
Stream size : 12.9 GiB (86%) 
Writing library : x264 core 112 r1867 22bfd31 
Encoding settings : cabac=1 / ref=5 / deblock=1:-3:-3 / analyse=0x3:0x113 / me=umh / subme=9 / psy=1 / psy_rd=1.00:0.08 / mixed_ref=1 / me_range=32 / chroma_me=1 / trellis=2 / 8x8dct=1 / cqm=0 / deadzone=21,11 / fast_pskip=0 / chroma_qp_offset=-3 / threads=6 / sliced_threads=0 / nr=0 / decimate=1 / interlaced=0 / constrained_intra=0 / bframes=4 / b_pyramid=1 / b_adapt=2 / b_bias=0 / direct=1 / weightb=1 / open_gop=2 / weightp=2 / keyint=250 / keyint_min=23 / scenecut=50 / intra_refresh=0 / rc_lookahead=100 / rc=2pass / mbtree=1 / bitrate=10449 / ratetol=1.0 / qcomp=0.60 / qpmin=10 / qpmax=51 / qpstep=4 / cplxblur=20.0 / qblur=0.5 / vbv_maxrate=50000 / vbv_bufsize=50000 / nal_hrd=none / ip_ratio=1.40 / aq=1:1.50 
Language : English 

Audio 
ID : 2 
Format : DTS 
Format/Info : Digital Theater Systems 
Codec ID : A_DTS 
Duration : 2h 58mn 
Bit rate mode : Constant 
Bit rate : 1 510 Kbps 
Channel(s) : 6 channels 
Channel positions : Front: L C R, Side: L R, LFE 
Sampling rate : 48.0 KHz 
Bit depth : 24 bits 
Video delay : 10ms 
Stream size : 1.88 GiB (13%) 
Title : 3/2+1 
Language : English 

Text 
ID : 3 
Format : PGS 
Codec ID : S_HDMV/PGS 
Codec ID/Info : The same subtitle format used on BDs/HD-DVDs 
Language : English German Portuguese Chinese Italian Korean
           Spanish  French Thai 


Menu & 31 Chapters






See all 21 full size 1920x816 PNG files at the link below
 
http://s1015.photobucket.com/albums/af279/tequila-bob/The%20Good%20The%20Bad%20And%20The%20Ugly%201966/


[url=http://www.phyrefile.com/image/view/LHlOUaX5DGfCfmcm][img]http://thumb.phyrefile.com/t/te/tequilabob/2011/01/26/300/vlcsnap-2011-01-26-22h01m36s55.png[/img][/url]
[url=http://www.phyrefile.com/image/view/8AhUdqe5B1FCWiuD][img]http://thumb.phyrefile.com/t/te/tequilabob/2011/01/26/300/vlcsnap-2011-01-26-22h06m40s22.png[/img][/url]
[url=http://www.phyrefile.com/image/view/VGDLm4JLiQNMKIqn][img]http://thumb.phyrefile.com/t/te/tequilabob/2011/01/26/300/vlcsnap-2011-01-26-22h10m44s163.png[/img][/url]
[url=http://www.phyrefile.com/image/view/Vj5sfltC2200i2xD][img]http://thumb.phyrefile.com/t/te/tequilabob/2011/01/26/300/vlcsnap-2011-01-26-22h16m47s204.png[/img][/url]
[url=http://www.phyrefile.com/image/view/kqJx3DoHs4IjjJ4g][img]http://thumb.phyrefile.com/t/te/tequilabob/2011/01/26/300/vlcsnap-2011-01-26-22h17m01s91.png[/img][/url]
[url=http://www.phyrefile.com/image/view/O2nGkv7dikY4OwrJ][img]http://thumb.phyrefile.com/t/te/tequilabob/2011/01/26/300/vlcsnap-2011-01-26-22h17m50s72.png[/img][/url]
[url=http://www.phyrefile.com/image/view/zW6IlXd9DqY9el0t][img]http://thumb.phyrefile.com/t/te/tequilabob/2011/01/26/300/vlcsnap-2011-01-26-22h18m02s193.png[/img][/url]
[url=http://www.phyrefile.com/image/view/TVVMOnPH18whNoNm][img]http://thumb.phyrefile.com/t/te/tequilabob/2011/01/26/300/vlcsnap-2011-01-26-22h18m19s106.png[/img][/url]
[url=http://www.phyrefile.com/image/view/58lLGm0CUk9RN9U0][img]http://thumb.phyrefile.com/t/te/tequilabob/2011/01/26/300/vlcsnap-2011-01-26-22h22m47s227.png[/img][/url]
[url=http://www.phyrefile.com/image/view/QZcriTLZnAoLSxzc][img]http://thumb.phyrefile.com/t/te/tequilabob/2011/01/26/300/vlcsnap-2011-01-26-22h22m51s6.png[/img][/url]
[url=http://www.phyrefile.com/image/view/MoVdV1j94aSOYz89][img]http://thumb.phyrefile.com/t/te/tequilabob/2011/01/26/300/vlcsnap-2011-01-26-22h22m53s36.png[/img][/url]